# xmcd CD database file
# Copyright (C) 1997 Ti Kan
#
# Track frame offsets:
#  150
#  16177
#  39712
#  63180
#
# Disc length: 1102 seconds
#
# Revision: 1
# Processed by: cddbd v1.4b41PL1 Copyright (c) Steve Scherf et al.
# Submitted via: CDWizzard Release:4.24
#
DISCID=28044c04
DTITLE=Cultivated bimbo - 98.6
DYEAR=1900
DGENRE=
TTITLE0=98.6 (edit)
TTITLE1=kim champagne (kim's cut)
TTITLE2=malcom
TTITLE3=tank
EXTD=
EXTT0=
EXTT1=
EXTT2=
EXTT3=
PLAYORDER=
